# vtk DataFile Version 2.0
generators
ASCII
DATASET  UNSTRUCTURED_GRID
POINTS 45 double
4 2 0
3.9854 2.20777 0
3.94189 2.38965 0
3.87032 2.52404 0
3.77207 2.59714 0
3.64907 2.60522 0
3.5037 2.555 0
3.33879 2.46242 0
3.15756 2.34966 0
2.96353 2.24127 0
2.76047 2.15975 0
2.55235 2.12163 0
2.34321 2.13456 0
2.13712 2.19594 0
1.93809 2.29342 0
1.75 2.40703 0
1.57651 2.51272 0
1.42099 2.58659 0
1.28647 2.60913 0
1.17558 2.56873 0
1.09046 2.46386 0
1.03278 2.30344 0
1.00365 2.10555 0
1.00365 1.89445 0
1.03278 1.69656 0
1.09046 1.53614 0
1.17558 1.43127 0
1.28647 1.39087 0
1.42099 1.41341 0
1.57651 1.48728 0
1.75 1.59297 0
1.93809 1.70658 0
2.13712 1.80406 0
2.34321 1.86544 0
2.55235 1.87837 0
2.76047 1.84025 0
2.96353 1.75873 0
3.15756 1.65034 0
3.33879 1.53758 0
3.5037 1.445 0
3.64907 1.39478 0
3.77207 1.40286 0
3.87032 1.47596 0
3.94189 1.61035 0
3.9854 1.79223 0
CELLS 223 691
1 0 
1 1 
1 2 
1 3 
1 4 
1 5 
1 6 
1 7 
1 8 
1 9 
1 10 
1 11 
1 12 
1 13 
1 14 
1 15 
1 16 
1 17 
1 18 
1 19 
1 20 
1 21 
1 22 
1 23 
1 24 
1 25 
1 26 
1 27 
1 28 
1 29 
1 30 
1 31 
1 32 
1 33 
1 34 
1 35 
1 36 
1 37 
1 38 
1 39 
1 40 
1 41 
1 42 
1 43 
1 44 
2 0 1 
2 0 7 
2 0 38 
2 0 44 
2 1 2 
2 1 6 
2 1 7 
2 2 3 
2 2 5 
2 2 6 
2 3 4 
2 3 5 
2 4 5 
2 5 6 
2 5 17 
2 5 18 
2 6 7 
2 6 16 
2 6 17 
2 7 8 
2 7 15 
2 7 16 
2 7 38 
2 8 9 
2 8 14 
2 8 15 
2 8 36 
2 8 37 
2 8 38 
2 9 10 
2 9 13 
2 9 14 
2 9 35 
2 9 36 
2 10 11 
2 10 12 
2 10 13 
2 10 35 
2 11 12 
2 11 33 
2 11 34 
2 11 35 
2 12 13 
2 12 33 
2 13 14 
2 13 32 
2 13 33 
2 14 15 
2 14 30 
2 14 31 
2 14 32 
2 15 16 
2 15 22 
2 15 23 
2 15 30 
2 16 17 
2 16 21 
2 16 22 
2 17 18 
2 17 20 
2 17 21 
2 18 19 
2 18 20 
2 19 20 
2 20 21 
2 21 22 
2 22 23 
2 23 24 
2 23 29 
2 23 30 
2 24 25 
2 24 28 
2 24 29 
2 25 26 
2 25 27 
2 25 28 
2 26 27 
2 27 28 
2 27 40 
2 28 29 
2 28 39 
2 28 40 
2 29 30 
2 29 38 
2 29 39 
2 30 31 
2 30 37 
2 30 38 
2 31 32 
2 31 36 
2 31 37 
2 32 33 
2 32 35 
2 32 36 
2 33 34 
2 33 35 
2 34 35 
2 35 36 
2 36 37 
2 37 38 
2 38 39 
2 38 44 
2 39 40 
2 39 43 
2 39 44 
2 40 41 
2 40 42 
2 40 43 
2 41 42 
2 42 43 
2 43 44 
3 0 1 7 
3 0 7 38 
3 0 38 44 
3 1 2 6 
3 1 6 7 
3 2 3 5 
3 2 5 6 
3 3 4 5 
3 5 6 17 
3 5 17 18 
3 6 7 16 
3 6 16 17 
3 7 8 15 
3 7 8 38 
3 7 15 16 
3 8 9 14 
3 8 9 36 
3 8 14 15 
3 8 36 37 
3 8 37 38 
3 9 10 13 
3 9 10 35 
3 9 13 14 
3 9 35 36 
3 10 11 12 
3 10 11 35 
3 10 12 13 
3 11 12 33 
3 11 33 34 
3 11 34 35 
3 12 13 33 
3 13 14 32 
3 13 32 33 
3 14 15 30 
3 14 30 31 
3 14 31 32 
3 15 16 22 
3 15 22 23 
3 15 23 30 
3 16 17 21 
3 16 21 22 
3 17 18 20 
3 17 20 21 
3 18 19 20 
3 23 24 29 
3 23 29 30 
3 24 25 28 
3 24 28 29 
3 25 26 27 
3 25 27 28 
3 27 28 40 
3 28 29 39 
3 28 39 40 
3 29 30 38 
3 29 38 39 
3 30 31 37 
3 30 37 38 
3 31 32 36 
3 31 36 37 
3 32 33 35 
3 32 35 36 
3 33 34 35 
3 38 39 44 
3 39 40 43 
3 39 43 44 
3 40 41 42 
3 40 42 43 
CELL_TYPES 223
1 1 1 1 1 1 1 1 1 1 1 1 1 1 1 1 1 1 1 1 1 1 1 1 1 1 1 1 1 1 1 1 1 1 1 1 1 1 1 1 1 1 1 1 1 3 3 3 3 3 3 3 3 3 3 3 3 3 3 3 3 3 3 3 3 3 3 3 3 3 3 3 3 3 3 3 3 3 3 3 3 3 3 3 3 3 3 3 3 3 3 3 3 3 3 3 3 3 3 3 3 3 3 3 3 3 3 3 3 3 3 3 3 3 3 3 3 3 3 3 3 3 3 3 3 3 3 3 3 3 3 3 3 3 3 3 3 3 3 3 3 3 3 3 3 3 3 3 3 3 3 3 3 3 3 3 5 5 5 5 5 5 5 5 5 5 5 5 5 5 5 5 5 5 5 5 5 5 5 5 5 5 5 5 5 5 5 5 5 5 5 5 5 5 5 5 5 5 5 5 5 5 5 5 5 5 5 5 5 5 5 5 5 5 5 5 5 5 5 5 5 5 5 
CELL_DATA 223
SCALARS Label int 1
LOOKUP_TABLE default
2 2 2 2 2 2 2 2 2 2 2 2 2 2 2 2 2 2 2 2 2 2 2 2 2 2 2 2 2 2 2 2 2 2 2 2 2 2 2 2 2 2 2 2 2 2 2 2 2 2 2 2 2 2 2 2 2 2 2 2 2 2 2 2 2 2 2 2 2 2 2 2 2 2 2 2 2 -1 2 2 2 2 2 2 2 2 2 2 2 2 2 2 2 2 2 2 2 2 2 2 2 2 2 2 2 2 2 2 2 2 2 2 2 2 2 2 2 2 2 2 2 2 2 2 2 2 2 2 2 2 2 2 2 2 2 2 2 2 2 2 2 2 2 2 2 2 2 2 2 2 2 2 2 2 2 2 2 2 2 2 2 2 2 2 2 2 2 2 2 2 2 2 2 2 2 2 2 1 2 0 2 2 2 2 2 2 2 2 2 2 2 2 2 2 2 2 2 2 2 2 2 2 2 2 2 2 2 2 2 2 2 2 2 2 2 2 2 2 2 2 2 2 2 
SCALARS CellId int 1
LOOKUP_TABLE default
0 1 2 3 4 5 6 7 8 9 10 11 12 13 14 15 16 17 18 19 20 21 22 23 24 25 26 27 28 29 30 31 32 33 34 35 36 37 38 39 40 41 42 43 44 0 1 2 3 4 5 6 7 8 9 10 11 12 13 14 15 16 17 18 19 20 21 22 23 24 25 26 27 28 29 30 31 32 33 34 35 36 37 38 39 40 41 42 43 44 45 46 47 48 49 50 51 52 53 54 55 56 57 58 59 60 61 62 63 64 65 66 67 68 69 70 71 72 73 74 75 76 77 78 79 80 81 82 83 84 85 86 87 88 89 90 91 92 93 94 95 96 97 98 99 100 101 102 103 104 105 106 107 108 109 110 0 1 2 3 4 5 6 7 8 9 10 11 12 13 14 15 16 17 18 19 20 21 22 23 24 25 26 27 28 29 30 31 32 33 34 35 36 37 38 39 40 41 42 43 44 45 46 47 48 49 50 51 52 53 54 55 56 57 58 59 60 61 62 63 64 65 66 
